<svg width="493" height="493" viewBox="0 0 493 493" fill="none" xmlns="http://www.w3.org/2000/svg">
<path fill-rule="evenodd" clip-rule="evenodd" d="M246.5 493C382.638 493 493 382.638 493 246.5C493 110.362 382.638 0 246.5 0C110.362 0 0 110.362 0 246.5C0 382.638 110.362 493 246.5 493ZM455.281 207.043C442.62 139.637 398.123 83.4588 337.999 54.7217C324.269 48.1593 317.404 44.8781 316.411 46.3629C315.419 47.8476 321.327 53.1657 333.142 63.8019C373.094 99.7647 406.011 156.98 413.062 181.659C404.196 188.308 386.465 197.174 376.098 199.99C377.917 214.797 378.872 230.136 378.872 245.84C378.872 255.351 378.662 264.775 378.222 274.064C377.965 279.48 377.837 282.188 379.563 283.501C381.29 284.814 383.781 283.994 388.765 282.355C402.443 277.855 413.863 272.818 422.698 267.507C433.852 260.802 446.201 251.657 451.358 242.374C456.515 233.092 457.546 219.105 455.281 207.043ZM229.497 65.9915C229.497 63.1775 229.497 61.7705 228.508 61.1127C227.519 60.4549 226.277 60.9758 223.793 62.0177C203.852 70.3793 186.501 88.2035 173.099 115.467C166.918 128.042 161.781 142.269 157.768 157.812C157.082 160.47 156.739 161.799 157.475 162.621C158.21 163.443 159.592 163.247 162.354 162.855C183.413 159.863 205.995 157.975 229.497 157.358V65.9915ZM229.497 191.432C207.836 192.032 187.236 193.767 168.199 196.429C159.591 197.633 155.288 198.235 152.295 201.444C149.303 204.654 149.006 208.953 148.412 217.552C147.776 226.755 147.452 236.194 147.452 245.826C147.452 256.871 147.931 267.847 148.843 278.633C149.448 285.796 149.751 289.378 152.215 291.996C154.68 294.614 158.256 295.135 165.407 296.178C190.111 299.78 217.52 301.809 246.5 301.809C248.634 301.809 250.76 301.798 252.878 301.776C256.572 301.738 259.509 304.975 259.105 308.647C257.352 324.562 243.4 335.877 227.398 335.304C202.514 334.413 176.575 332.373 156.553 329.293C156.559 329.32 156.565 329.346 156.571 329.373C149.025 328.208 140.924 326.866 135.49 325.727C129.295 324.428 121.895 322.619 115.929 321.102C112.972 320.349 110.414 319.681 108.599 319.201C107.692 318.962 106.973 318.77 106.483 318.638L106.469 318.635C101.037 317.103 95.8058 315.481 90.7939 313.775C70.558 306.884 52.959 298.297 40.0764 287.926C39.2809 287.285 38.4948 286.631 37.7201 285.962C50.2801 352.824 94.1654 408.638 153.554 437.58C160.118 440.779 163.401 442.378 164.436 441.145C165.472 439.912 163.232 436.82 158.751 430.637C151.107 420.086 144.371 407.858 138.551 394.618C136.215 389.306 134.001 383.771 131.917 378.043C128.816 369.518 127.266 365.255 129.537 362.523C131.808 359.791 136.479 360.569 145.819 362.126C148.9 362.64 151.827 363.109 154.3 363.483C161.997 364.65 168.386 369.945 171.353 377.142C172.03 378.786 172.72 380.406 173.42 381.999C181.368 400.079 190.383 413.961 199.49 423.028C208.65 432.147 216.256 434.879 221.902 434.879C244.185 434.879 262.82 420.72 276.599 385.807C282.394 371.123 286.832 353.789 290.019 334.393C289.964 334.397 289.909 334.4 289.854 334.404C291.84 322.893 293.165 312.024 294.141 299.929C294.167 299.927 294.193 299.925 294.218 299.923C295.658 282.88 296.351 264.75 296.351 245.826C296.351 235.496 295.995 225.36 295.311 215.475C276.403 216.654 252.245 217.34 229.551 216.378V215.847H229.497V191.432ZM109.911 245.826C109.911 255.357 110.242 264.868 110.882 274.291C111.15 278.228 111.284 280.196 110.396 281.41C109.935 282.04 109.29 282.536 108.562 282.819C107.16 283.365 105.365 282.754 101.773 281.531C83.5653 275.331 70.0535 268.331 61.4362 261.393C52.6657 254.333 51.0927 249.192 51.0927 246.503C51.0927 243.877 52.5801 238.924 60.8504 232.09C69.0059 225.351 81.8439 218.495 99.2508 212.35C99.4843 212.267 99.7185 212.185 99.9533 212.103C105.039 210.326 107.581 209.437 109.343 210.765C111.105 212.092 110.945 214.886 110.626 220.472C110.149 228.817 109.911 237.278 109.911 245.826ZM138.813 101.593C130.743 118.011 124.378 136.399 119.698 156.186C117.882 163.866 116.974 167.705 114.701 170.118C112.428 172.531 108.657 173.664 101.113 175.93C96.5563 177.299 92.1521 178.734 87.9121 180.23C68.4662 187.095 51.5444 195.594 39.1533 205.833C38.6713 206.231 38.193 206.635 37.719 207.044C50.9714 136.485 99.1086 78.2292 163.537 50.8718C172.211 47.1886 176.548 45.347 177.503 46.7344C178.458 48.1218 175.026 51.6848 168.164 58.8108C156.446 70.978 146.692 85.5649 138.813 101.593ZM329.373 431.84C322.655 439.442 319.296 443.244 320.289 444.586C321.282 445.928 325.658 443.936 334.409 439.953C392.857 413.351 437.131 361.039 452.785 297.467C453.937 292.79 454.512 290.452 453.349 289.642C452.186 288.832 450.095 290.25 445.913 293.085C444.054 294.345 442.161 295.55 440.247 296.7C426.535 304.943 409.291 311.995 389.619 317.748C381.733 320.054 377.791 321.207 375.456 323.754C373.122 326.301 372.317 330.324 370.707 338.37C366.199 360.901 359.658 381.64 350.679 399.676C344.685 411.715 337.599 422.531 329.373 431.84Z" fill="white"/>
</svg>
